<svg xmlns="http://www.w3.org/2000/svg" xmlns:xlink="http://www.w3.org/1999/xlink" id="Layer_1" x="0" y="0" version="1.1" viewBox="0 0 500 500" xml:space="preserve" style="enable-background:new 0 0 500 500"><style type="text/css">.st0{fill:#00a3e0}.st1{fill:none}.st2{fill:url(#SVGID_1_)}</style><g><path d="M333.2,310.3c0,0,136.3-100.5,81.1-165.5c-64-75.4-243.4,84.5-263,52S310.5,86.4,329.9,73.4 c2.1-1.4,2.7-4.1,2.1-7.2l20.7-2.4l-12.9-6.5l3.3-12.9l-15,11.7c-5.6-10.1-15.2-21-20.7-24.8c-19.5-12.9-55.2-9.8-107.1,16.2 S28,154.6,89.6,245.5c55.2,81.1,213.8-58.3,240.3-35.8c22.7,19.5-152.5,139.6-152.5,139.6s74.4,0,74.7,0 C239.2,381.8,177.4,476,177.4,476l224.8-162.4C378.6,310.1,333.2,310.3,333.2,310.3z M272.1,41c8-0.6,14.9,5.6,15.5,13.5 c0.6,8-5.6,14.9-13.5,15.5c-8,0.6-14.9-5.6-15.5-13.5C257.9,48.5,264.1,41.6,272.1,41z" class="st0"/></g><rect width="455" height="455" x="22.5" y="22.5" class="st1"/><linearGradient id="SVGID_1_" x1="301.6" x2="301.6" y1="435.7" y2="435.7" gradientTransform="matrix(1 0 0 -1 0 500)" gradientUnits="userSpaceOnUse"><stop offset="0" style="stop-color:#243746"/><stop offset=".095" style="stop-color:#223442"/><stop offset=".19" style="stop-color:#1c2b36"/><stop offset=".284" style="stop-color:#121b22"/><stop offset=".377" style="stop-color:#030507"/><stop offset=".396" style="stop-color:#000"/></linearGradient><path d="M301.6,64.3" class="st2"/></svg>